<svg width="76" height="75" viewBox="0 0 76 75" fill="none" xmlns="http://www.w3.org/2000/svg">
<g id="vuesax/linear/security-safe">
<g id="security-safe">
<path id="Vector" d="M65.8438 34.7499C65.8438 50.0312 54.75 64.3437 39.5938 68.5312C38.5625 68.8124 37.4375 68.8124 36.4062 68.5312C21.25 64.3437 10.1562 50.0312 10.1562 34.7499V21.0311C10.1562 18.4686 12.0938 15.5624 14.5 14.5936L31.9062 7.46875C35.8125 5.875 40.2187 5.875 44.125 7.46875L61.5313 14.5936C63.9063 15.5624 65.8751 18.4686 65.8751 21.0311L65.8438 34.7499Z" stroke="#7F57F1" stroke-width="3" stroke-linecap="round" stroke-linejoin="round"/>
<g id="Group">
<path id="Vector_2" d="M38 39.0625C41.4518 39.0625 44.25 36.2643 44.25 32.8125C44.25 29.3607 41.4518 26.5625 38 26.5625C34.5482 26.5625 31.75 29.3607 31.75 32.8125C31.75 36.2643 34.5482 39.0625 38 39.0625Z" stroke="#7F57F1" stroke-width="3" stroke-miterlimit="10" stroke-linecap="round" stroke-linejoin="round"/>
<path id="Vector_3" d="M38 39.0625V48.4375" stroke="#7F57F1" stroke-width="3" stroke-miterlimit="10" stroke-linecap="round" stroke-linejoin="round"/>
</g>
</g>
</g>
</svg>
