<svg width="21" height="21" viewBox="0 0 21 21" fill="none" xmlns="http://www.w3.org/2000/svg">
<g id="vuesax/linear/eye-slash">
<g id="eye-slash">
<path id="Vector" d="M12.6092 8.2207L8.39258 12.4374C7.85091 11.8957 7.51758 11.154 7.51758 10.329C7.51758 8.67904 8.85091 7.3457 10.5009 7.3457C11.3259 7.3457 12.0676 7.67904 12.6092 8.2207Z" stroke="#939196" stroke-width="1.5" stroke-linecap="round" stroke-linejoin="round"/>
<path id="Vector_2" d="M15.3499 5.1375C13.8915 4.0375 12.2249 3.4375 10.4999 3.4375C7.5582 3.4375 4.81654 5.17083 2.9082 8.17083C2.1582 9.34583 2.1582 11.3208 2.9082 12.4958C3.56654 13.5292 4.3332 14.4208 5.16654 15.1375" stroke="#939196" stroke-width="1.5" stroke-linecap="round" stroke-linejoin="round"/>
<path id="Vector_3" d="M7.51758 16.6042C8.46758 17.0042 9.47591 17.2208 10.5009 17.2208C13.4426 17.2208 16.1842 15.4875 18.0926 12.4875C18.8426 11.3125 18.8426 9.3375 18.0926 8.1625C17.8176 7.72917 17.5176 7.32083 17.2092 6.9375" stroke="#939196" stroke-width="1.5" stroke-linecap="round" stroke-linejoin="round"/>
<path id="Vector_4" d="M13.4242 10.9121C13.2076 12.0871 12.2492 13.0454 11.0742 13.2621" stroke="#939196" stroke-width="1.5" stroke-linecap="round" stroke-linejoin="round"/>
<path id="Vector_5" d="M8.39102 12.4375L2.16602 18.6625" stroke="#939196" stroke-width="1.5" stroke-linecap="round" stroke-linejoin="round"/>
<path id="Vector_6" d="M18.8324 1.99609L12.6074 8.22109" stroke="#939196" stroke-width="1.5" stroke-linecap="round" stroke-linejoin="round"/>
</g>
</g>
</svg>
