<svg width="21" height="21" viewBox="0 0 21 21" fill="none" xmlns="http://www.w3.org/2000/svg">
<path d="M13.4842 10.329C13.4842 11.979 12.1509 13.3124 10.5009 13.3124C8.85091 13.3124 7.51758 11.979 7.51758 10.329C7.51758 8.67904 8.85091 7.3457 10.5009 7.3457C12.1509 7.3457 13.4842 8.67904 13.4842 10.329Z" stroke="#939196" stroke-width="1.5" stroke-linecap="round" stroke-linejoin="round"/>
<path d="M10.4999 17.2204C13.4415 17.2204 16.1832 15.487 18.0915 12.487C18.8415 11.312 18.8415 9.33704 18.0915 8.16204C16.1832 5.16204 13.4415 3.42871 10.4999 3.42871C7.5582 3.42871 4.81654 5.16204 2.9082 8.16204C2.1582 9.33704 2.1582 11.312 2.9082 12.487C4.81654 15.487 7.5582 17.2204 10.4999 17.2204Z" stroke="#939196" stroke-width="1.5" stroke-linecap="round" stroke-linejoin="round"/>
</svg>
