<svg width="21" height="21" viewBox="0 0 21 21" fill="none" xmlns="http://www.w3.org/2000/svg">
<path d="M5.5 8.66276V6.99609C5.5 4.23776 6.33333 1.99609 10.5 1.99609C14.6667 1.99609 15.5 4.23776 15.5 6.99609V8.66276" stroke="#C8C8C8" stroke-width="1.5" stroke-linecap="round" stroke-linejoin="round"/>
<path d="M10.4993 15.7458C11.6499 15.7458 12.5827 14.813 12.5827 13.6624C12.5827 12.5118 11.6499 11.5791 10.4993 11.5791C9.34876 11.5791 8.41602 12.5118 8.41602 13.6624C8.41602 14.813 9.34876 15.7458 10.4993 15.7458Z" stroke="#C8C8C8" stroke-width="1.5" stroke-linecap="round" stroke-linejoin="round"/>
<path d="M14.666 18.6621H6.33268C2.99935 18.6621 2.16602 17.8288 2.16602 14.4954V12.8288C2.16602 9.49544 2.99935 8.66211 6.33268 8.66211H14.666C17.9993 8.66211 18.8327 9.49544 18.8327 12.8288V14.4954C18.8327 17.8288 17.9993 18.6621 14.666 18.6621Z" stroke="#C8C8C8" stroke-width="1.5" stroke-linecap="round" stroke-linejoin="round"/>
</svg>
