<svg width="24" height="24" viewBox="0 0 24 24" fill="none" xmlns="http://www.w3.org/2000/svg">
<path d="M16.3756 3.67179L16.3763 3.67156C18.2858 3.03506 19.4904 3.32489 20.0847 3.92C20.6798 4.51593 20.969 5.72401 20.3374 7.63362C20.3373 7.6339 20.3372 7.63418 20.3371 7.63445L17.3277 16.6526L17.3275 16.6532C16.8386 18.1225 16.289 19.1657 15.7428 19.8267C15.1947 20.4902 14.7191 20.6925 14.3591 20.6925C13.9992 20.6925 13.5236 20.4902 12.9755 19.8267C12.4293 19.1657 11.8797 18.1225 11.3908 16.6532L10.5009 13.9737L10.3824 13.6168L10.0255 13.4983L7.34596 12.6084C7.34592 12.6084 7.34589 12.6084 7.34585 12.6084C5.87644 12.1194 4.83319 11.5703 4.17211 11.0248C3.50857 10.4773 3.30664 10.0028 3.30664 9.64379C3.30664 9.28461 3.5088 8.80931 4.17268 8.2604C4.83391 7.71368 5.8772 7.16293 7.34638 6.67153C7.34659 6.67146 7.3468 6.67139 7.34701 6.67132L16.3756 3.67179ZM13.1895 12.6904L13.1909 12.689L16.9895 8.87037C16.9898 8.87007 16.9901 8.86977 16.9904 8.86947C17.5724 8.2865 17.5721 7.33231 16.9895 6.74971C16.4066 6.16682 15.4517 6.16682 14.8688 6.74971L14.8674 6.75111L11.0688 10.5697C11.0685 10.5701 11.0681 10.5704 11.0678 10.5708C10.4859 11.1537 10.4863 12.1078 11.0688 12.6904C11.3669 12.9884 11.751 13.13 12.1291 13.13C12.5073 13.13 12.8914 12.9884 13.1895 12.6904Z" fill="#7F57F1" stroke="#7F57F1" stroke-width="1.5"/>
</svg>
