<svg width="101" height="101" viewBox="0 0 101 101" fill="none" xmlns="http://www.w3.org/2000/svg">
<g id="vuesax/bold/tick-circle">
<g id="tick-circle">
<g id="Vector">
<path d="M50.5006 8.58789C27.5423 8.58789 8.83398 27.2962 8.83398 50.2546C8.83398 73.2129 27.5423 91.9212 50.5006 91.9212C73.459 91.9212 92.1673 73.2129 92.1673 50.2546C92.1673 27.2962 73.459 8.58789 50.5006 8.58789ZM70.4173 40.6712L46.7923 64.2962C46.209 64.8796 45.4173 65.2129 44.584 65.2129C43.7506 65.2129 42.959 64.8796 42.3757 64.2962L30.584 52.5046C29.3756 51.2962 29.3756 49.2962 30.584 48.0879C31.7923 46.8796 33.7923 46.8796 35.0006 48.0879L44.584 57.6712L66.0006 36.2546C67.209 35.0462 69.209 35.0462 70.4173 36.2546C71.6257 37.4629 71.6257 39.4212 70.4173 40.6712Z" fill="#00AA70"/>
<path d="M70.9476 41.2016L70.9477 41.2016L70.9566 41.1925C72.441 39.6568 72.4537 37.2303 70.9476 35.7242C69.4464 34.223 66.9715 34.223 65.4703 35.7242L44.584 56.6106L35.531 47.5576C34.0298 46.0563 31.5549 46.0563 30.0537 47.5576C28.5524 49.0588 28.5524 51.5337 30.0537 53.0349L41.8453 64.8266C42.5677 65.5489 43.5495 65.9629 44.584 65.9629C45.6185 65.9629 46.6003 65.5489 47.3226 64.8266L70.9476 41.2016ZM9.58398 50.2546C9.58398 27.7104 27.9565 9.33789 50.5006 9.33789C73.0448 9.33789 91.4173 27.7104 91.4173 50.2546C91.4173 72.7987 73.0448 91.1712 50.5006 91.1712C27.9565 91.1712 9.58398 72.7987 9.58398 50.2546Z" stroke="#00AA70" stroke-opacity="0.39" stroke-width="1.5"/>
</g>
</g>
</g>
</svg>
